<?xml version="1.0" encoding="UTF-8" standalone="no"?>
<!DOCTYPE svg PUBLIC "-//W3C//DTD SVG 1.1//EN" "http://www.w3.org/Graphics/SVG/1.1/DTD/svg11.dtd">
<svg width="100%" height="100%" viewBox="0 0 8691 8691" version="1.1" xmlns="http://www.w3.org/2000/svg" xmlns:xlink="http://www.w3.org/1999/xlink" xml:space="preserve" xmlns:serif="http://www.serif.com/" style="fill-rule:evenodd;clip-rule:evenodd;stroke-linejoin:round;stroke-miterlimit:2;">
    <g id="Artboard4" transform="matrix(1,0,0,1,-12283.5,9685.04)">
        <rect x="12283.5" y="-9685.04" width="8690.27" height="8690.27" style="fill:none;"/>
        <g id="CIRCULO.svg" transform="matrix(4.16667,0,0,4.16667,16628.6,-5339.9)">
            <g transform="matrix(1,0,0,1,-937.935,-937.935)">
                <clipPath id="_clip1">
                    <rect x="0" y="0" width="1875.87" height="1875.87"/>
                </clipPath>
                <g clip-path="url(#_clip1)">
                    <path d="M190.911,1224.38C197.156,1240.12 203.118,1255.5 209.738,1270.58C214.943,1282.43 220.561,1294.14 226.72,1305.53C234.183,1319.33 242.268,1332.8 250.344,1346.25C258.293,1359.49 266.056,1372.89 274.825,1385.58C286.451,1402.4 299.189,1418.46 311.062,1435.12C328.125,1459.06 348.613,1479.87 369.416,1500.45C376.316,1507.27 383.046,1514.3 389.425,1521.61C391.562,1524.06 393.477,1527.63 393.576,1530.76C393.893,1540.71 401.905,1544.86 407.781,1550.22C416.018,1557.74 425.163,1564.29 434.102,1571.01C443.338,1577.95 452.84,1584.54 462.136,1591.4C470.71,1597.73 478.858,1604.68 487.74,1610.54C502.856,1620.49 518.175,1630.19 533.829,1639.27C549.618,1648.43 565.604,1657.37 582.07,1665.22C605.419,1676.35 629.126,1686.78 653.004,1696.74C664.514,1701.53 676.76,1704.57 688.681,1708.38C709.583,1715.05 730.356,1722.18 751.449,1728.19C764.233,1731.83 777.534,1733.63 790.574,1736.4C802.505,1738.93 814.352,1741.88 826.323,1744.19C833.974,1745.67 841.773,1746.42 849.522,1747.36C858.431,1748.44 867.364,1749.33 876.275,1750.39C884.036,1751.32 891.755,1752.84 899.539,1753.28C916.578,1754.26 933.647,1754.71 950.703,1755.38C959.065,1755.71 967.436,1756.47 975.786,1756.29C990.85,1755.95 1005.9,1754.89 1020.96,1754.51C1023.93,1754.43 1027.07,1755.76 1029.85,1757.03C1030.93,1757.53 1031.7,1759.66 1031.73,1761.07C1031.74,1761.82 1029.97,1762.84 1028.83,1763.34C1020.74,1766.88 1012.03,1767.46 1003.42,1768.34C992.014,1769.5 980.6,1770.73 969.16,1771.3C949.951,1772.26 930.721,1772.94 911.492,1773.29C901.14,1773.47 890.722,1773.23 880.423,1772.24C869.553,1771.2 858.797,1769 847.978,1767.4C844.639,1766.91 841.24,1766.83 837.899,1766.36C824.22,1764.41 810.45,1762.9 796.909,1760.24C781.309,1757.17 765.877,1753.21 750.445,1749.35C739.764,1746.67 729.185,1743.58 718.598,1740.55C699.983,1735.21 681.342,1729.95 662.823,1724.3C654.585,1721.78 646.462,1718.74 638.557,1715.31C616.229,1705.63 593.815,1696.11 571.868,1685.62C554.439,1677.28 537.384,1668.07 520.643,1658.42C501.202,1647.22 481.894,1635.68 463.254,1623.21C445.481,1611.32 428.274,1598.5 411.496,1585.23C395.129,1572.28 379.225,1558.68 363.842,1544.58C347.705,1529.79 331.961,1514.5 316.906,1498.62C302.27,1483.17 288.311,1467.03 274.816,1450.58C260.866,1433.56 247.346,1416.15 234.56,1398.25C225.235,1385.2 218.093,1370.58 208.755,1357.54C193.543,1336.29 182.182,1312.96 171.147,1289.56C160.457,1266.88 149.305,1244.33 141.747,1220.23C137.795,1207.63 131.65,1195.73 127.412,1183.2C122.701,1169.27 118.909,1155.03 114.955,1140.86C112.362,1131.57 110.018,1122.2 107.878,1112.79C105.376,1101.79 103.147,1090.73 100.929,1079.67C98.211,1066.11 95.457,1052.56 93.051,1038.94C91.665,1031.1 90.529,1023.16 89.992,1015.22C88.737,996.655 87.82,978.062 86.937,959.471C86.143,942.754 85.452,926.029 84.96,909.301C84.686,899.976 84.462,890.61 85.008,881.309C85.996,864.508 87.415,847.727 88.968,830.967C90,819.825 91.094,808.649 93.024,797.639C95.922,781.111 99.37,764.67 102.968,748.276C106.712,731.21 110.252,714.054 115.099,697.29C119.804,681.014 126.107,665.204 131.612,649.156C136.119,636.017 140.138,622.701 145.018,609.705C149.019,599.05 153.902,588.721 158.513,578.301C164.248,565.341 169.673,552.219 176.018,539.562C184.268,523.107 193.055,506.909 202.058,490.851C208.984,478.498 216.374,466.388 223.967,454.429C233.628,439.213 243.346,424.008 253.714,409.273C261.615,398.044 270.179,387.219 279.152,376.822C290.288,363.917 302.144,351.632 313.704,339.093C318.159,334.26 322.642,329.453 327.137,324.658C337.381,313.73 347.129,302.271 358.032,292.045C369.666,281.133 382.261,271.221 394.691,261.188C406.364,251.765 418.105,242.386 430.31,233.679C440.083,226.707 450.655,220.865 460.766,214.357C474.86,205.284 488.657,195.73 502.96,187.003C513.517,180.561 524.604,174.966 535.59,169.254C549.701,161.917 563.726,154.352 578.2,147.792C592.351,141.378 606.949,135.922 621.477,130.375C640.477,123.12 659.425,115.654 678.731,109.299C692.441,104.786 706.703,101.947 720.723,98.383C731.28,95.698 741.781,92.743 752.429,90.477C760.941,88.666 769.64,87.74 778.249,86.371C786.684,85.03 795.101,83.571 803.542,82.268C810.298,81.224 817.064,80.215 823.852,79.404C838.485,77.656 853.134,76.043 867.778,74.388C868.436,74.314 869.11,74.399 869.776,74.376C879.471,74.047 889.164,73.594 898.862,73.403C919.888,72.991 940.919,72.393 961.945,72.492C975.671,72.557 989.413,73.439 1003.11,74.458C1016.08,75.423 1029.05,76.722 1041.95,78.458C1059.38,80.806 1076.8,83.401 1094.13,86.459C1114.86,90.119 1135.54,94.168 1156.15,98.458C1168.5,101.027 1180.75,104.123 1192.92,107.448C1206.06,111.038 1219.24,114.628 1232.05,119.198C1249.74,125.508 1267.35,132.173 1284.54,139.708C1308.25,150.098 1331.79,160.95 1354.92,172.554C1370.03,180.133 1384.37,189.271 1398.91,197.945C1410.43,204.817 1422.05,211.604 1433.07,219.23C1446.52,228.535 1459.42,238.622 1472.48,248.479C1482.66,256.165 1492.85,263.847 1502.78,271.855C1509.24,277.072 1515.4,282.699 1521.41,288.447C1534.46,300.941 1547.74,313.244 1560.17,326.341C1574.76,341.719 1589.27,357.284 1602.52,373.806C1620.32,395.993 1636.85,419.192 1654.02,441.887C1655.11,443.328 1656.98,444.172 1658.5,445.294C1658.18,443.371 1658.48,441.009 1657.46,439.594C1646.54,424.407 1635.78,409.078 1624.22,394.375C1612.56,379.532 1600.35,365.087 1587.83,350.951C1574.76,336.192 1561.24,321.819 1547.54,307.639C1537.81,297.566 1527.8,287.708 1517.3,278.448C1503.88,266.619 1489.94,255.387 1476.06,244.095C1467.27,236.943 1458.46,229.749 1449.17,223.292C1434.36,213.006 1419.33,202.998 1404.03,193.466C1387.4,183.107 1370.47,173.215 1353.44,163.522C1340.81,156.33 1327.99,149.417 1314.94,143.031C1295,133.28 1275.14,123.229 1254.6,114.908C1234.32,106.695 1213.2,100.576 1192.53,93.322C1185.57,90.878 1178.59,88.232 1172.1,84.774C1168.82,83.024 1166.25,79.513 1163.99,76.348C1159.69,70.34 1156.55,68.723 1150.05,70.415C1148.88,70.719 1147.32,71.203 1146.82,72.098C1141.32,81.893 1132.71,78.96 1125.08,76.79C1116.98,74.487 1109.29,70.692 1101.5,67.384C1099.93,66.721 1098.4,65.538 1097.38,64.194C1096.51,63.043 1095.61,60.852 1096.13,59.958C1096.88,58.694 1099.12,57.275 1100.39,57.539C1106,58.704 1111.76,59.836 1116.94,62.155C1122.08,64.459 1126.86,64.057 1131.9,62.877C1141.01,60.742 1150.06,58.333 1159.23,56.512C1161.92,55.978 1164.97,57.546 1167.79,57.298C1186.37,55.66 1204.18,59.718 1221.88,64.43C1235.95,68.177 1250.09,71.848 1263.87,76.536C1276.38,80.794 1288.43,86.418 1300.71,91.368C1312.71,96.202 1324.88,100.625 1336.72,105.814C1349.57,111.443 1362.03,117.93 1374.81,123.706C1386.88,129.158 1399.13,134.208 1411.35,139.309C1412.29,139.704 1413.65,139.106 1414.82,138.969C1414.1,138.106 1413.55,136.965 1412.63,136.421C1401.95,130.05 1391.34,123.555 1380.47,117.51C1359.77,105.99 1339.24,94.072 1318.03,83.555C1293.56,71.421 1267.98,61.723 1241.61,54.476C1220.45,48.662 1199.03,43.791 1177.77,38.344C1167.86,35.803 1158.09,32.671 1148.16,30.206C1139.2,27.981 1130.11,26.266 1121.06,24.388C1111.23,22.348 1101.37,20.474 1091.56,18.316C1088.88,17.727 1086.35,16.451 1083.81,15.344C1082.76,14.886 1081.87,14.047 1080.91,13.381C1082.07,12.38 1083.24,10.493 1084.37,10.52C1092.85,10.723 1101.38,10.856 1109.78,11.911C1116.23,12.721 1122.51,14.924 1128.9,16.298C1129.97,16.526 1131.74,16.067 1132.38,15.275C1138.41,7.845 1145.7,10.287 1153.19,12.065C1161.89,14.131 1170.76,15.485 1179.49,17.428C1185.85,18.844 1192.16,20.56 1198.42,22.411C1210.43,25.967 1222.5,29.402 1234.33,33.497C1241.29,35.905 1247.73,39.756 1254.61,42.464C1260.93,44.958 1267.43,47.402 1274.48,46.36C1282.42,45.186 1289.48,48.815 1296.64,50.9C1308.3,54.295 1319.59,58.99 1330.92,63.428C1339.95,66.964 1349.06,70.437 1357.69,74.816C1376.31,84.264 1394.26,95.093 1413.19,103.845C1435.57,114.197 1456.53,126.741 1477.26,139.941C1485.38,145.11 1494.75,148.321 1503.57,152.372C1514.96,157.601 1524.63,165.334 1533.66,173.785C1540.62,180.294 1546.63,187.809 1553.54,194.375C1563.24,203.597 1572.83,213.101 1583.52,221.078C1592.28,227.619 1599.89,234.805 1606.61,243.375C1613.5,252.177 1621.39,260.193 1628.68,268.695C1637.62,279.117 1645.92,290.128 1655.38,300.046C1662.49,307.507 1670.93,313.708 1678.88,320.351C1682.17,323.1 1686.01,325.236 1689.1,328.172C1704.28,342.579 1718.39,357.908 1729.16,376.038C1730.15,377.704 1731.99,378.843 1733.34,380.323C1739.35,386.958 1745.84,393.241 1751.2,400.373C1759.51,411.443 1767.39,422.878 1774.83,434.558C1787.66,454.697 1799.05,475.683 1808.81,497.467C1815.92,513.337 1822.36,529.524 1828.66,545.738C1833.18,557.375 1837.44,569.157 1840.99,581.118C1844.8,593.937 1847.54,607.07 1850.95,620.013C1853.51,629.756 1856.78,639.328 1859.03,649.138C1860.86,657.152 1861.78,665.387 1862.88,673.554C1864.65,686.682 1866.34,699.824 1867.86,712.983C1868.48,718.312 1868.51,723.707 1868.92,729.062C1870.22,745.845 1871.6,762.622 1872.9,779.405C1873.62,788.791 1874.33,798.18 1874.88,807.577C1875.35,815.431 1876.11,823.32 1875.8,831.156C1875.19,846.257 1874.04,861.341 1872.87,876.413C1872.11,886.184 1871.4,896.002 1869.78,905.652C1867.9,916.904 1865.57,928.139 1862.5,939.119C1859.09,951.293 1854.57,963.155 1850.64,975.185C1849.24,979.455 1848.52,983.977 1846.83,988.108C1844.01,994.943 1840.9,1001.68 1837.47,1008.22C1833.41,1015.95 1825.57,1018.69 1818.02,1021.27C1812.58,1023.13 1809.33,1025.35 1808.63,1031.93C1807.84,1039.39 1805.19,1046.73 1802.73,1053.91C1802.08,1055.8 1799.15,1056.91 1797.27,1058.38C1796.15,1056.51 1793.79,1054.38 1794.11,1052.81C1796.27,1042.36 1794.01,1031.3 1798.5,1021.17C1798.89,1020.29 1798.29,1018.85 1797.88,1017.77C1795.03,1010.21 1792.57,1002.64 1792.83,994.328C1793.16,984.172 1792.72,973.993 1792.95,963.832C1793.49,940.272 1794.66,916.72 1794.77,893.161C1794.84,876.941 1793.68,860.71 1792.87,844.493C1792.43,835.592 1792.02,826.649 1790.8,817.836C1789.26,806.767 1786.84,795.824 1784.93,784.803C1783.48,776.376 1782.3,767.902 1780.9,759.467C1778.61,745.759 1775.53,732.141 1774.07,718.348C1771.62,695.129 1763.67,673.396 1757.16,651.292C1750.96,630.263 1744.11,609.404 1736.78,588.741C1731.02,572.5 1725.02,556.219 1717.46,540.769C1707.24,519.87 1696.53,499.123 1683.07,479.993C1680.65,476.55 1678.66,472.802 1676.26,469.34C1675.66,468.467 1674.25,468.154 1673.2,467.584C1673.44,468.906 1673.34,470.42 1673.97,471.515C1676.84,476.514 1680.04,481.323 1682.89,486.334C1690.62,499.95 1698.44,513.53 1705.87,527.314C1719.15,551.958 1729.39,577.888 1737.94,604.525C1742.65,619.224 1748.18,633.683 1752.37,648.524C1756.82,664.268 1760.08,680.342 1763.92,696.258C1765.86,704.279 1768.18,712.216 1769.82,720.294C1770.96,725.921 1770.97,731.772 1771.97,737.435C1773.75,747.479 1776.09,757.425 1777.76,767.484C1778.12,769.623 1777.19,773.521 1775.83,774.073C1773.11,775.176 1769.94,774.194 1768.59,770.587C1763.74,757.597 1758.59,744.717 1753.96,731.651C1747.58,713.618 1741.5,695.473 1735.4,677.341C1731.75,666.509 1728.78,655.427 1724.65,644.788C1719.53,631.589 1713.63,618.69 1707.88,605.739C1701.33,590.952 1694.9,576.094 1687.83,561.553C1678.65,542.667 1669.22,523.88 1659.24,505.409C1653.6,494.984 1646.48,485.373 1640.33,475.213C1636.25,468.461 1633.06,461.157 1628.82,454.511C1622.82,445.089 1616.5,435.835 1609.81,426.891C1599.57,413.215 1588.99,399.796 1578.37,386.411C1574.03,380.943 1569.45,375.622 1564.58,370.629C1543.7,349.225 1523.32,327.274 1501.48,306.888C1485.33,291.814 1467.24,278.806 1449.96,264.957C1440.73,257.559 1431.68,249.87 1421.97,243.141C1410.82,235.409 1399.02,228.611 1387.52,221.374C1372.05,211.637 1356.81,201.507 1341.07,192.241C1330.98,186.305 1320.27,181.387 1309.63,176.436C1294.84,169.543 1280.03,162.616 1264.89,156.505C1251.04,150.91 1236.77,146.351 1222.66,141.388C1211.16,137.344 1199.75,133.008 1188.1,129.48C1175.62,125.699 1162.89,122.722 1150.28,119.376C1139.02,116.39 1127,114.946 1116.71,109.964C1105.03,104.317 1092.53,104.967 1080.7,101.499C1070.03,98.369 1059.05,96.931 1047.84,95.953C1037.6,95.06 1027.42,93.554 1017.05,93.231C1006.61,92.904 996.223,91.234 985.787,90.466C982.633,90.234 979.398,91.369 976.209,91.323C961.845,91.117 947.48,90.313 933.125,90.487C917.729,90.674 902.296,91.177 886.967,92.534C872.565,93.809 858.29,96.472 843.935,98.345C834.874,99.527 825.732,100.126 816.695,101.459C809.412,102.533 802.25,104.403 795.002,105.752C789.555,106.766 783.945,107.076 778.605,108.461C762.835,112.55 747.203,117.169 731.436,121.272C723.562,123.322 715.327,124.103 707.583,126.511C694.043,130.721 680.82,135.94 667.348,140.382C646.289,147.324 627.01,158.12 607.13,167.627C599.208,171.415 590.909,174.5 583.297,178.814C579.854,180.765 577.164,184.632 575.039,188.174C572.444,192.499 571.285,197.692 568.646,201.982C563.023,211.123 553.601,215.92 544.837,221.371C532.253,229.197 519.559,236.85 507.056,244.803C499.233,249.78 491.495,254.929 484.041,260.436C472.885,268.68 462,277.292 451.021,285.775C439.148,294.95 427.274,304.122 415.452,313.361C408.759,318.591 402.119,323.893 395.543,329.271C384.076,338.65 372.599,348.021 361.285,357.582C356.306,361.79 352.156,367.141 345.283,368.469C342.775,368.954 340.185,369.415 337.656,369.311C332.289,369.088 328.705,371.27 325.131,375.381C318.603,382.886 310.976,389.423 304.185,396.715C297.557,403.833 291.293,411.3 285.07,418.781C279.956,424.928 275.061,431.26 270.207,437.617C264.035,445.699 257.431,453.526 252.019,462.099C236.708,486.355 222.213,511.128 206.814,535.326C194.773,554.248 187.392,575.288 177.892,595.365C173.406,604.846 168.09,613.984 164.242,623.709C151.738,655.319 138.801,686.799 131.83,720.299C129.68,730.635 126.179,740.69 124.039,751.028C122.393,758.979 121.963,767.179 120.895,775.256C119.937,782.504 118.872,789.739 117.805,796.973C117.227,800.885 116.18,804.763 115.975,808.689C115.153,824.404 114.606,840.134 113.894,855.855C113.666,860.888 112.954,865.914 112.983,870.941C113.02,877.471 113.498,884.004 113.994,890.52C114.07,891.516 115.261,892.428 115.936,893.379C116.594,892.577 117.691,891.852 117.845,890.963C120.136,877.755 124.947,865.088 125.089,851.377C125.203,840.449 126.399,829.461 128.028,818.636C130.585,801.646 133.53,784.693 137.012,767.869C140.903,749.073 145.109,730.314 150.083,711.781C153.151,700.355 157.87,689.368 161.921,678.21C166.392,665.899 170.389,653.374 175.6,641.381C183.091,624.14 191.075,607.083 199.609,590.335C211.178,567.633 222.644,544.827 237.677,524.091C242.588,517.317 247.234,510.347 252.287,503.683C253.262,502.397 255.569,502.121 257.262,501.379C257.091,502.933 257.341,504.7 256.682,506.008C250.429,518.427 244.038,530.778 237.652,543.13C231.193,555.623 224.485,567.992 218.276,580.608C212.903,591.525 207.791,602.591 203.081,613.808C196.763,628.856 190.462,643.943 185.032,659.323C178.195,678.687 171.824,698.242 166.053,717.95C161.982,731.853 159.192,746.134 155.926,760.268C153.182,772.145 150.195,783.985 148.018,795.969C145.859,807.856 144.77,819.932 142.864,831.87C140.149,848.873 140.978,866.087 139.58,883.106C137.245,911.528 138.092,939.91 138.083,968.302C138.078,981.721 139.863,995.144 140.925,1008.56C141.856,1020.32 142.551,1032.11 144.023,1043.8C145.221,1053.31 147.42,1062.69 149.167,1072.14C151.086,1082.51 152.903,1092.9 154.941,1103.25C156.452,1110.92 157.877,1118.64 159.985,1126.16C164.748,1143.16 170.433,1159.91 174.759,1177.01C178.839,1193.13 184.501,1208.61 190.911,1224.38Z" style="fill:url(#_Radial2);fill-rule:nonzero;"/>
                    <path d="M379.161,1612.13C369.963,1606.88 361.062,1602 354.433,1593.68C351.775,1590.34 347.269,1588.53 343.837,1585.74C337.318,1580.44 330.742,1575.18 324.592,1569.47C310.933,1556.78 297.459,1543.89 284.047,1530.94C279.804,1526.84 276.029,1522.27 271.976,1517.97C269.799,1515.66 267.633,1514.33 264.995,1517.71C262.043,1521.5 258.563,1520.64 254.94,1518.41C248.103,1514.19 243.277,1508.85 242.834,1500.28C242.627,1496.27 243.989,1494.82 247.9,1495.32C248.857,1495.44 249.904,1494.86 250.911,1494.6C250.492,1493.61 250.251,1492.49 249.624,1491.65C247.227,1488.45 244.738,1485.32 242.206,1482.22C241.674,1481.57 240.817,1481.19 240.11,1480.68C239.71,1481.51 239.034,1482.33 238.961,1483.19C238.707,1486.18 240.033,1490.07 236.104,1491.25C232.042,1492.46 230.791,1488.48 228.992,1485.94C225.259,1480.66 221.864,1475.12 217.787,1470.13C216.028,1467.98 213.109,1466.26 210.394,1465.5C201.335,1462.98 196.43,1456.34 193.042,1448.43C191.393,1444.59 195.759,1441 200.087,1441.99C200.95,1442.19 201.965,1441.72 202.911,1441.56C202.482,1440.57 202.272,1438.91 201.592,1438.69C190.103,1434.93 185.565,1424.29 178.972,1415.8C170.113,1404.39 161.704,1392.63 153.072,1381.05C148.984,1375.57 144.869,1370.1 140.662,1364.71C140.021,1363.88 138.819,1363.5 137.876,1362.91C137.704,1364.38 136.861,1366.29 137.481,1367.25C139.62,1370.57 142.315,1373.54 144.708,1376.7C146.514,1379.1 148.59,1381.41 149.761,1384.11C150.489,1385.78 150.359,1388.39 149.535,1390.05C148.226,1392.67 145.493,1393.41 142.882,1391.76C140.723,1390.39 138.243,1388.89 137.02,1386.79C131,1376.5 125.17,1366.08 119.639,1355.51C116.215,1348.96 113.202,1342.18 110.458,1335.32C108.324,1329.98 110.911,1326.04 116.294,1325.36C117.18,1325.25 118.039,1324.93 118.911,1324.7C118.397,1323.91 117.881,1323.13 117.371,1322.34C113.127,1315.76 107.888,1309.61 104.867,1302.52C99.804,1290.62 96.45,1278.01 91.772,1265.94C89.776,1260.79 86.292,1256.21 83.382,1251.43C83.052,1250.88 81.934,1250.35 81.402,1250.52C80.779,1250.72 79.876,1251.82 79.998,1252.29C80.617,1254.67 81.315,1257.08 82.388,1259.29C84.217,1263.04 86.757,1266.5 88.165,1270.38C88.804,1272.15 88.032,1275.13 86.777,1276.61C86.025,1277.49 82.861,1277.04 81.197,1276.28C75.755,1273.8 74.413,1268.77 73.861,1263.32C73.693,1261.65 73.46,1259.41 72.369,1258.52C62.444,1250.41 59.198,1238.3 54.121,1227.5C47.647,1213.73 42.234,1199.4 37.243,1185.02C33.134,1173.17 30.309,1160.88 26.91,1148.79C24.182,1139.08 21.124,1129.46 18.788,1119.66C15.234,1104.75 11.827,1089.79 9.011,1074.72C6.271,1060.07 4.821,1045.24 3.518,1030.35C2.445,1018.09 1.626,1005.84 0.633,993.582C-0.491,979.723 -0.355,966.153 3.007,952.741C4.935,945.051 9.77,942.369 17.39,943.288C18.05,943.368 19.582,942.042 19.499,941.592C17.209,929.195 15.289,916.752 15.968,904.107C16.407,895.922 13.924,888.652 11.153,881.086C8.381,873.515 7.165,865.281 6.037,857.229C5.088,850.454 4.491,843.459 5.071,836.675C6.185,823.652 8.093,810.688 9.954,797.74C11.755,785.207 13.492,772.639 16.015,760.241C19.251,744.339 22.94,728.513 26.993,712.799C31.291,696.137 35.851,679.518 41.108,663.141C43.154,656.768 47.205,650.973 50.833,645.224C51.638,643.947 55.008,642.995 56.313,643.651C57.981,644.491 59.865,647.206 59.717,648.95C59.091,656.373 57.889,663.761 56.623,671.114C55.587,677.133 53.999,683.058 53.041,689.086C52.835,690.382 54.287,691.941 54.975,693.379C55.954,692.398 57.446,691.585 57.831,690.409C61.629,678.805 66.998,667.359 68.482,655.439C70.498,639.251 77.633,625.562 84.324,611.375C88.906,601.659 91.675,591.629 92.364,580.55C92.911,571.735 97.289,563.095 100.385,554.528C101.883,550.382 104.415,546.88 103.049,541.87C101.034,534.481 105.044,527.839 107.635,521.363C113.296,507.215 119.533,493.282 125.997,479.477C129.994,470.941 134.865,462.816 139.282,454.473C140.143,452.847 140.889,451.12 141.396,449.355C143.634,441.571 149.578,437.559 156.388,434.409C164.717,430.556 169.164,423.044 173.93,415.84C175.652,413.238 177.403,410.631 178.818,407.861C179.457,406.61 179.308,404.956 179.516,403.484C178.169,403.782 176.514,403.693 175.541,404.464C173.783,405.855 172.472,407.799 170.903,409.444C166.923,413.613 162.948,417.79 158.81,421.797C158.495,422.102 156.09,421.157 156.052,420.68C155.885,418.607 155.666,416.235 156.484,414.433C164.848,396.002 174.848,378.603 187.759,362.844C197.007,351.555 205.193,339.403 214.068,327.8C218.766,321.658 223.737,315.7 228.908,309.949C242.591,294.732 255.832,279.047 270.398,264.716C287.402,247.988 305.353,232.183 323.428,216.596C333.264,208.113 344.139,200.82 354.672,193.162C366.172,184.8 377.684,176.44 389.451,168.462C396.643,163.585 404.756,158.454 413.488,160.74C422.087,162.992 426.535,158.563 432.578,154.589C442.384,148.142 453.052,142.997 463.404,137.391C476.331,130.39 489.262,123.397 502.271,116.551C517.452,108.563 532.538,100.362 547.998,92.949C563.266,85.627 578.933,79.132 594.459,72.354C602.503,68.842 610.51,65.205 618.731,62.155C630.876,57.648 643.119,53.374 655.463,49.449C666.978,45.788 678.634,42.542 690.31,39.426C702.344,36.214 714.439,33.204 726.581,30.434C736.525,28.165 746.518,25.961 756.601,24.505C765.404,23.234 774.386,23.258 783.247,22.315C791.14,21.476 798.975,20.101 806.835,18.953C812.647,18.103 818.437,17.068 824.271,16.41C843.457,14.246 862.663,12.727 882.027,13.266C892.704,13.563 903.42,12.309 914.107,12.486C926.005,12.684 937.929,13.308 949.767,14.496C960.965,15.619 972.04,17.902 983.212,19.34C1007.96,22.526 1030.93,31.676 1054.12,40.109C1058.03,41.529 1061.93,42.989 1065.7,44.736C1069.55,46.523 1072.36,49.344 1071.87,54.035C1071.51,57.497 1066.5,61.969 1062.44,62.343C1050.53,63.443 1038.61,65.15 1026.69,65.194C1009.8,65.256 992.906,64.06 976.016,63.372C968.82,63.079 961.629,62.528 954.43,62.422C943.376,62.259 932.315,62.257 921.26,62.408C905.064,62.629 888.865,62.884 872.677,63.437C862.11,63.798 851.518,64.323 841.017,65.488C830.485,66.657 820.032,68.595 809.582,70.409C796.86,72.616 784.096,74.681 771.494,77.458C747.948,82.647 724.252,87.116 701.381,95.23C670.984,106.015 640.25,115.849 609.672,126.125C583.239,135.008 558.71,148.156 534.139,160.986C515.268,170.84 497.231,182.36 479.22,193.765C468.149,200.776 457.83,208.974 447.163,216.623C430.717,228.416 414.042,239.904 397.892,252.089C388.215,259.39 378.964,267.365 370.196,275.744C345.395,299.447 320.679,323.251 296.485,347.568C287.071,357.031 278.996,367.854 270.581,378.275C259.12,392.469 247.692,406.702 236.686,421.248C229.764,430.396 223.717,440.202 217.14,449.617C209.09,461.139 200.741,472.453 192.798,484.047C176.969,507.151 164.503,532.143 152.536,557.364C145.607,571.968 138.816,586.695 133.064,601.787C125.762,620.95 119.487,640.508 112.952,659.957C110.096,668.46 107.275,677.015 105.196,685.728C102.681,696.266 100.986,706.999 98.904,717.641C97.579,724.418 96.136,731.172 94.851,737.957C93.473,745.235 92.286,752.549 90.893,759.824C89.211,768.611 87.267,777.349 85.683,786.152C84.253,794.103 82.837,802.08 81.98,810.106C80.404,824.86 79.234,839.659 77.915,854.441C77.225,862.162 76.072,869.883 76.002,877.612C75.763,904.109 75.373,930.626 76.14,957.103C76.517,970.113 76.885,983.363 80.886,996.045C81.077,996.651 80.95,997.373 80.905,998.037C79.983,1011.49 84.393,1024.12 86.833,1037.07C88.567,1046.27 89.287,1055.67 90.976,1064.88C93.805,1080.32 96.714,1095.76 100.219,1111.06C102.954,1122.99 106.367,1134.79 109.979,1146.5C114.804,1162.14 119.704,1177.78 125.317,1193.14C132.185,1211.94 139.481,1230.61 147.252,1249.05C152.515,1261.54 158.956,1273.53 164.798,1285.78C170.505,1297.75 175.68,1309.99 181.871,1321.7C194.577,1345.72 206.651,1370.09 222.312,1392.49C235.408,1411.23 247.006,1431.01 260.06,1449.78C268.46,1461.85 278.312,1472.92 287.483,1484.46C295.05,1493.98 302.434,1503.65 310.157,1513.05C316.547,1520.82 323.305,1528.29 329.917,1535.88C332.485,1538.83 335.499,1541.48 337.566,1544.74C339.255,1547.4 340.203,1550.7 340.836,1553.84C342.277,1561 347.754,1565.01 352.658,1569.31C358.971,1574.84 364.459,1580.69 368.669,1588.2C371.741,1593.68 377.377,1597.73 381.92,1602.37C383.852,1604.34 386.255,1605.96 387.778,1608.19C388.654,1609.47 388.198,1611.66 388.341,1613.45C386.752,1613.48 385.144,1613.67 383.579,1613.49C382.165,1613.33 380.798,1612.77 379.161,1612.13Z" style="fill:url(#_Radial3);fill-rule:nonzero;"/>
                    <path d="M975.911,1863.38C974.715,1863.05 974.029,1862.44 973.324,1862.42C957.347,1861.91 941.68,1859.04 926.28,1855.16C919.372,1853.43 913.09,1849.28 906.443,1846.41C899.093,1843.23 891.671,1840.22 884.234,1837.26C882.799,1836.69 881.151,1836.43 879.598,1836.42C870.599,1836.34 861.588,1836.63 852.606,1836.22C850.03,1836.11 846.528,1834.76 845.271,1832.81C843.784,1830.5 844.568,1827.03 847.635,1825.14C847.911,1824.97 848.213,1824.72 848.331,1824.43C849.215,1822.3 850.911,1820.01 850.589,1818.06C850.397,1816.89 847.049,1815.58 845.066,1815.49C832.821,1814.92 821.36,1811.09 809.901,1807.33C793.934,1802.11 777.929,1796.93 762.852,1789.36C760.222,1788.04 757.517,1786.76 755.166,1785.03C752.188,1782.83 749.83,1779.79 751.041,1775.88C752.332,1771.71 756.401,1770.7 760.097,1770.51C764.264,1770.29 768.492,1770.94 772.673,1771.4C777.742,1771.96 782.781,1772.79 787.849,1773.36C794.564,1774.11 801.312,1774.57 808.014,1775.41C817.483,1776.6 826.919,1778.05 836.376,1779.33C841.754,1780.07 847.129,1780.92 852.534,1781.33C863.246,1782.15 873.977,1782.73 884.701,1783.37C896.09,1784.06 907.473,1784.99 918.873,1785.32C938.561,1785.88 958.262,1786.38 977.954,1786.27C991.681,1786.19 1005.41,1785.14 1019.12,1784.35C1027.52,1783.86 1035.95,1783.39 1044.28,1782.29C1053.33,1781.08 1062.26,1778.98 1071.29,1777.56C1079.32,1776.29 1087.43,1775.54 1095.48,1774.35C1107.7,1772.55 1119.96,1770.88 1132.1,1768.59C1144.69,1766.21 1157.23,1763.41 1169.65,1760.29C1178.34,1758.1 1186.81,1755.08 1195.36,1752.37C1214.21,1746.39 1233.12,1740.58 1251.88,1734.3C1262.98,1730.59 1273.95,1726.44 1284.75,1721.93C1295.97,1717.24 1307.18,1712.37 1317.92,1706.7C1338.34,1695.93 1358.17,1684.04 1378.7,1673.51C1401.67,1661.73 1422.89,1647.19 1444.44,1633.2C1458.28,1624.22 1471.07,1613.6 1484.19,1603.54C1491.45,1597.97 1498.44,1592.04 1505.52,1586.23C1506,1585.83 1506.19,1585.07 1506.52,1584.49C1505.38,1584.22 1503.94,1583.38 1503.16,1583.79C1500.8,1585.03 1498.66,1586.69 1496.51,1588.29C1478.28,1601.83 1460.33,1615.76 1441.77,1628.83C1425.76,1640.1 1409.25,1650.68 1392.61,1661C1382.9,1667.03 1372.63,1672.22 1362.39,1677.32C1341.96,1687.51 1321.57,1697.83 1300.78,1707.23C1285.78,1714 1270.26,1719.68 1254.77,1725.29C1241.42,1730.12 1227.89,1734.56 1214.23,1738.43C1198.66,1742.84 1182.89,1746.55 1167.15,1750.34C1156.51,1752.89 1145.82,1755.33 1135.05,1757.28C1128.26,1758.5 1121.3,1758.89 1114.39,1759.34C1102.01,1760.14 1089.61,1760.59 1077.23,1761.45C1073.74,1761.7 1070.5,1760.32 1070.28,1757.61C1070.11,1755.49 1072.82,1751.96 1075.06,1751.04C1081.04,1748.58 1087.43,1747.08 1093.72,1745.42C1098.25,1744.21 1102.9,1743.46 1107.45,1742.32C1119.06,1739.39 1130.65,1736.39 1142.24,1733.37C1151.86,1730.86 1161.43,1728.16 1171.07,1725.74C1196.61,1719.34 1220.86,1709.19 1245.52,1700.25C1253.45,1697.38 1260.84,1693 1268.48,1689.31C1270.95,1688.12 1273.43,1686.92 1275.91,1685.73C1274.01,1683.88 1272.03,1682.11 1270.23,1680.16C1266.99,1676.66 1266.96,1672.08 1270.22,1668.6C1277.16,1661.2 1286,1656.66 1294.99,1652.37C1302.37,1648.85 1309.73,1645.29 1317.07,1641.71C1324.98,1637.85 1333.14,1634.42 1340.68,1629.95C1355.98,1620.86 1370.98,1611.27 1386.01,1601.74C1399.23,1593.37 1412.37,1584.86 1425.47,1576.3C1442.14,1565.4 1458.76,1554.43 1475.35,1543.42C1485.69,1536.55 1495.75,1529.23 1506.28,1522.67C1513.75,1518.03 1521.42,1512.29 1529.69,1510.75C1538.57,1509.1 1543.85,1504.2 1549.22,1498.5C1560.99,1485.97 1572.68,1473.36 1584.15,1460.55C1591.47,1452.37 1598.54,1443.95 1605.35,1435.34C1612.44,1426.37 1619.16,1417.1 1625.89,1407.86C1635.3,1394.95 1645.1,1382.28 1653.78,1368.89C1664.02,1353.1 1673.62,1336.86 1682.81,1320.43C1693.69,1301 1704.19,1281.34 1714.2,1261.44C1724.31,1241.34 1733.84,1220.93 1743.23,1200.48C1752.35,1180.58 1760.38,1160.23 1767.01,1139.32C1769.42,1131.71 1772.83,1124.41 1775.97,1117.05C1776.7,1115.34 1777.91,1113.45 1779.43,1112.58C1781.1,1111.62 1783.44,1111.32 1785.37,1111.6C1786.07,1111.7 1787.03,1114.39 1786.81,1115.74C1785.33,1124.91 1784.05,1134.15 1781.8,1143.15C1778.57,1156.08 1775.14,1169 1770.79,1181.58C1763.04,1204 1754.27,1226.08 1746.42,1248.47C1738.9,1269.93 1728.59,1290.1 1718.9,1310.57C1705.53,1338.84 1690.25,1366.02 1672.79,1391.96C1664.18,1404.76 1655.76,1417.71 1646.55,1430.07C1634.7,1445.96 1622.47,1461.6 1609.79,1476.83C1597.5,1491.59 1584.64,1505.89 1571.62,1520.02C1562.84,1529.55 1553.36,1538.43 1544.18,1547.61C1541.97,1549.82 1539.68,1551.98 1537.59,1554.32C1537.22,1554.73 1537.65,1555.87 1537.71,1556.68C1538.41,1556.44 1539.31,1556.4 1539.8,1555.93C1557.82,1538.64 1576.37,1521.85 1593.62,1503.82C1607.23,1489.6 1619.66,1474.19 1631.86,1458.71C1642.11,1445.69 1651.83,1432.16 1660.78,1418.21C1674.93,1396.18 1688.45,1373.74 1701.83,1351.23C1709.83,1337.79 1717.35,1324.04 1724.52,1310.14C1731.3,1296.99 1737.32,1283.45 1743.7,1270.09C1751.4,1254 1760.89,1238.98 1771.32,1224.55C1772.66,1222.68 1774.29,1220.46 1776.28,1219.71C1782.42,1217.36 1783.7,1211.89 1786.01,1206.8C1788.18,1202.01 1791,1197.49 1793.83,1193.04C1796.29,1189.18 1799.27,1186.04 1798.08,1180.51C1795.96,1170.59 1800.46,1162.4 1806.17,1154.44C1814.48,1142.84 1822.1,1130.75 1829.91,1118.8C1830.9,1117.29 1832.05,1115.23 1831.78,1113.66C1830.08,1103.65 1835.69,1095.12 1837.09,1085.77C1837.71,1081.62 1839.1,1077.58 1839.88,1073.45C1841.81,1063.26 1849.41,1056.09 1853.74,1047.19C1854.35,1045.92 1856.1,1045.07 1857.49,1044.35C1861.31,1042.38 1863.39,1043.84 1863.97,1048.01C1865.96,1062.44 1864.44,1076.68 1861.88,1090.86C1860.02,1101.22 1858.32,1111.64 1855.82,1121.85C1852.19,1136.62 1847.18,1151.08 1844.09,1165.94C1839.66,1187.13 1832.85,1207.56 1825.78,1227.9C1820.08,1244.33 1813.53,1260.48 1806.83,1276.54C1800.9,1290.75 1794.84,1304.97 1787.77,1318.63C1777.16,1339.12 1765.87,1359.28 1754.37,1379.29C1743.9,1397.51 1732.87,1415.42 1721.88,1433.33C1713.22,1447.45 1704.36,1461.44 1695.38,1475.36C1687.38,1487.75 1679.7,1500.42 1670.74,1512.1C1660.93,1524.88 1653.11,1539.1 1641.54,1550.68C1636.4,1555.82 1630.85,1560.11 1625.38,1564.72C1619.12,1569.99 1614.33,1576.99 1608.19,1582.42C1595.25,1593.86 1582.7,1605.71 1567.59,1614.59C1558.32,1620.04 1550.2,1627.48 1541.71,1634.21C1540.35,1635.29 1539.83,1637.4 1538.81,1638.96C1534.36,1645.81 1534.38,1645.75 1540.82,1650.83C1543.56,1653 1544.54,1656 1541.39,1658.25C1534.9,1662.89 1528.38,1667.67 1521.28,1671.23C1511.11,1676.32 1500.37,1680.27 1489.95,1684.89C1482.91,1688.01 1475.92,1691.28 1469.07,1694.81C1464.13,1697.35 1461.33,1701.23 1460.64,1707.27C1460.2,1711.16 1458.02,1715.65 1455.16,1718.32C1444.96,1727.82 1434.09,1736.57 1421.28,1742.54C1412.89,1746.44 1404.47,1750.31 1396.31,1754.65C1393.24,1756.29 1390.4,1758.89 1388.26,1761.67C1380.8,1771.39 1370.64,1777.5 1360.32,1783.47C1340.87,1794.72 1320.08,1802.91 1298.96,1810.37C1285.44,1815.14 1271.89,1819.85 1258.31,1824.46C1245.88,1828.68 1233.54,1833.23 1220.9,1836.71C1208.26,1840.19 1195.25,1842.37 1182.49,1845.43C1172.37,1847.86 1162.42,1850.95 1152.31,1853.4C1145.6,1855.04 1138.76,1856.18 1131.94,1857.35C1123.83,1858.75 1115.69,1860 1107.54,1861.22C1104.22,1861.72 1100.87,1862.15 1097.52,1862.36C1066.3,1864.26 1035.08,1866.52 1003.77,1865.33C994.636,1864.98 985.528,1864.05 975.911,1863.38Z" style="fill:url(#_Radial4);fill-rule:nonzero;"/>
                    <path d="M520.911,1720.38C533.633,1726.27 545.722,1732.46 558.116,1737.96C570.49,1743.46 583.193,1748.21 595.707,1753.39C609.927,1759.29 624.011,1765.52 638.32,1771.19C648.631,1775.27 659.166,1778.81 669.687,1782.34C680.232,1785.88 690.812,1789.35 701.505,1792.4C716.285,1796.61 731.078,1800.89 746.074,1804.2C755.105,1806.19 764.578,1806.07 773.771,1807.45C788.261,1809.62 802.7,1812.07 815.849,1819.28C819.082,1821.05 819.702,1823.76 818.678,1826.13C817.864,1828.01 815.029,1830.12 813.008,1830.21C790.97,1831.15 768.913,1832.3 746.867,1832.2C728.253,1832.11 709.858,1829.45 691.871,1823.99C677.308,1819.58 662.317,1816.57 647.742,1812.19C642.529,1810.62 638.051,1806.71 633.091,1804.15C630.649,1802.89 627.869,1802.3 625.25,1801.38C619.143,1799.23 612.955,1797.28 606.956,1794.86C595.964,1790.43 584.791,1786.3 574.241,1780.96C563.852,1775.71 554.102,1769.17 544.189,1763.02C543.045,1762.3 542.915,1760.12 541.862,1759.08C538.414,1755.65 534.941,1752.2 531.122,1749.22C527.948,1746.74 524.333,1744.79 520.778,1742.86C519.809,1742.34 518.347,1742.71 517.112,1742.68C517.331,1743.7 517.671,1744.71 517.743,1745.74C517.885,1747.77 518.497,1750.07 517.798,1751.8C516.516,1754.99 513.116,1755.02 510.517,1754.25C506.236,1752.99 501.352,1751.66 500.063,1746.61C499.405,1744.03 499.501,1740.57 500.747,1738.35C502.551,1735.14 502.394,1733.91 499.15,1731.96C488.965,1725.87 479.159,1719.13 468.973,1713.04C459.803,1707.55 449.935,1703.16 441.088,1697.22C431.819,1691 423.294,1683.64 414.706,1676.46C413.13,1675.14 411.5,1671.57 412.196,1670.36C413.461,1668.17 416.483,1665.63 418.719,1665.67C422.77,1665.76 427.178,1666.93 430.738,1668.91C441.752,1675.03 452.397,1681.8 463.259,1688.2C473.695,1694.34 484.179,1700.4 494.727,1706.35C503.222,1711.14 511.845,1715.71 520.911,1720.38Z" style="fill:url(#_Radial5);fill-rule:nonzero;"/>
                    <path d="M1708.16,671.129C1711.91,686.259 1715.42,701.137 1718.91,716.019C1721.54,727.26 1725.28,738.388 1726.48,749.782C1727.8,762.387 1733.12,774.59 1730.77,787.506C1730.33,789.962 1728.11,792.096 1726.71,794.379C1724.78,792.601 1721.81,791.156 1721.11,788.981C1719.2,783.054 1718.17,776.833 1716.92,770.703C1714.54,759.016 1712.12,747.335 1709.96,735.605C1708.69,728.736 1708.29,721.699 1706.84,714.877C1702.71,695.46 1696.96,676.538 1689.36,658.147C1686.47,651.176 1685.48,643.439 1682.79,636.37C1679.78,628.47 1675.65,621.002 1672.3,613.224C1663.09,591.879 1654.05,570.461 1644.89,549.095C1643.37,545.556 1641.23,542.251 1640.01,538.626C1638.92,535.376 1640.13,531.763 1643.32,530.797C1645.64,530.097 1649.73,530.807 1651.19,532.487C1659.73,542.282 1668.45,552.062 1675.68,562.811C1681.58,571.577 1686.16,581.426 1690,591.308C1692.52,597.795 1692.69,605.197 1693.91,612.189C1694.81,617.316 1695.34,622.542 1696.67,627.551C1700.23,640.876 1704.16,654.102 1707.87,667.387C1708.17,668.471 1707.91,669.711 1708.16,671.129Z" style="fill:url(#_Radial6);fill-rule:nonzero;"/>
                    <path d="M372.661,1642.63C363.065,1634.03 353.336,1626.07 344.522,1617.19C339.474,1612.11 336.025,1605.47 331.639,1599.69C329.465,1596.83 329.673,1594.08 332.469,1592.63C334.163,1591.76 337.518,1592.12 339.048,1593.31C342.073,1595.67 344.467,1598.89 346.905,1601.93C349.988,1605.77 353.287,1608.85 357.888,1611.3C363.86,1614.47 368.87,1619.55 374.053,1624.09C381.544,1630.65 388.936,1637.33 396.143,1644.2C400.702,1648.54 401.09,1652.28 397.188,1654.29C395.317,1655.25 391.911,1654.77 389.911,1653.66C384.053,1650.41 378.552,1646.52 372.661,1642.63Z" style="fill:url(#_Radial7);fill-rule:nonzero;"/>
                    <path d="M471.161,1673.13C468.227,1670.19 465.233,1667.74 463.007,1664.72C462.074,1663.45 461.976,1660.27 462.91,1659.24C464.207,1657.82 467.484,1656.37 468.784,1657.06C477.817,1661.85 486.715,1666.94 495.349,1672.43C504.879,1678.48 514.139,1684.96 523.367,1691.47C524.934,1692.58 526.316,1694.64 526.694,1696.48C526.913,1697.55 525.02,1700.15 523.982,1700.2C516.694,1700.58 510.544,1698.18 505.808,1692.2C504.157,1690.11 501.459,1688.7 499.01,1687.42C489.862,1682.64 480.618,1678.05 471.161,1673.13Z" style="fill:url(#_Radial8);fill-rule:nonzero;"/>
                    <path d="M1862.66,1006.13C1864.83,1005.47 1866.78,1004.7 1868.65,1004.86C1869.19,1004.91 1869.67,1007.6 1869.88,1009.12C1870.64,1014.79 1869.25,1019.92 1865.47,1024.23C1864.59,1025.23 1862.85,1026.47 1861.95,1026.19C1860.72,1025.79 1859.1,1024.08 1859.07,1022.89C1858.93,1017.19 1857.6,1011.12 1862.66,1006.13Z" style="fill:url(#_Radial9);fill-rule:nonzero;"/>
                </g>
            </g>
        </g>
        <g transform="matrix(1,0,0,1,-2403.5,2268.74)">
            <g transform="matrix(4.16667,0,0,4.16667,15239.7,-11435.4)">
                <path d="M475.193,728.108C478.624,735.54 481.809,742.719 484.985,749.903C486.978,754.41 488.914,758.943 490.984,763.415C491.344,764.191 492.235,765.208 492.899,765.221C493.569,765.234 494.541,764.269 494.901,763.507C500.295,752.079 505.554,740.588 510.958,729.165C516.892,716.621 522.861,704.092 528.961,691.628C539.202,670.701 549.214,649.651 559.954,628.981C572.94,603.991 586.411,579.247 600.033,554.595C605.088,545.447 611.316,536.954 616.711,527.982C619.163,523.906 620.791,519.341 623.015,515.116C623.535,514.128 624.961,513.616 625.969,512.885C626.294,514.084 627.193,515.481 626.857,516.452C621.311,532.478 616.013,548.609 609.812,564.383C605.028,576.552 599.094,588.272 593.62,600.168C589.304,609.548 584.771,618.83 580.586,628.267C575.718,639.245 571.167,650.362 566.399,661.385C560.959,673.965 555.593,686.58 549.894,699.042C544.893,709.979 539.331,720.659 534.29,731.579C530.29,740.243 526.759,749.123 522.918,757.863C518.147,768.72 513.032,779.435 508.603,790.428C507.46,793.265 507.293,797.347 508.453,800.114C513.454,812.043 519.165,823.673 524.52,835.456C530.383,848.356 536.069,861.338 541.965,874.223C546.775,884.735 551.915,895.095 556.672,905.63C565.609,925.421 574.295,945.327 583.24,965.115C589.46,978.876 595.968,992.506 602.282,1006.22C604.278,1010.56 606.087,1014.98 607.93,1019.38C608.624,1021.04 609.103,1021.61 610.827,1020.07C621.857,1010.19 632.882,1000.3 644.159,990.715C657.663,979.235 671.524,968.177 685.026,956.695C694.464,948.67 703.522,940.197 712.834,932.022C715.335,929.826 717.946,927.568 720.896,926.143C722.608,925.317 725.094,926.093 727.232,926.148C727.136,928.078 727.623,930.303 726.826,931.879C724.931,935.627 722.864,939.456 720.093,942.563C708.966,955.041 697.591,967.299 686.219,979.556C676.032,990.535 665.793,1001.47 655.459,1012.31C645.29,1022.97 634.988,1033.51 624.71,1044.07C622.294,1046.55 621.105,1049.03 622.897,1052.54C627.315,1061.19 631.663,1069.89 635.734,1078.71C640.056,1088.08 643.999,1097.62 648.156,1107.06C657.092,1127.36 666.006,1147.67 675.037,1167.92C679.743,1178.47 684.838,1188.86 689.471,1199.44C696.755,1216.08 703.757,1232.85 710.959,1249.53C714.867,1258.58 718.459,1267.81 723.074,1276.5C728.015,1285.79 728.594,1296.18 731.895,1305.85C732.022,1306.22 731.843,1306.84 731.587,1307.18C728.747,1310.92 726.305,1315.12 722.879,1318.24C718.592,1322.13 713.768,1319.92 709.587,1317.32C700.156,1311.46 690.642,1305.7 681.567,1299.32C674.361,1294.26 667.726,1288.38 660.891,1282.79C649.675,1273.63 638.439,1264.49 627.336,1255.2C621.343,1250.18 615.592,1244.88 609.759,1239.67C594.061,1225.66 578.401,1211.6 562.68,1197.61C551.371,1187.55 539.994,1177.57 528.637,1167.56C523.27,1162.83 517.947,1158.05 512.472,1153.45C509.51,1150.96 506.744,1150.32 503.179,1153.45C486.884,1167.8 470.411,1181.95 453.806,1195.93C438.91,1208.47 423.942,1220.94 408.664,1233.02C393.811,1244.76 378.52,1255.94 363.428,1267.38C350.996,1276.8 338.642,1286.32 326.126,1295.63C314.437,1304.32 302.658,1312.9 290.724,1321.25C288.694,1322.67 285.653,1323.36 283.133,1323.24C273.703,1322.8 268.448,1313.41 271.855,1304.62C275.476,1295.28 278.429,1285.67 281.626,1276.17C287.185,1259.64 292.377,1242.97 298.336,1226.59C304.492,1209.66 311.467,1193.04 317.917,1176.21C324.038,1160.25 329.841,1144.16 335.976,1128.2C340.561,1116.27 345.368,1104.42 350.226,1092.6C356.722,1076.8 363.359,1061.05 369.952,1045.28C370.368,1044.29 370.925,1043.35 371.414,1042.39C375.22,1034.88 375.251,1034.6 369.034,1028.98C356.318,1017.5 343.534,1006.09 330.753,994.678C321.881,986.757 312.822,979.039 304.111,970.946C294.437,961.957 284.531,953.124 275.721,943.328C268.218,934.986 262.087,925.402 255.432,916.307C253.388,913.516 254.405,911.598 257.714,912.485C261.693,913.552 265.856,914.942 269.181,917.272C288.214,930.611 307.216,944.013 325.835,957.918C337.294,966.475 348.088,975.928 359.116,985.056C367.575,992.059 375.897,999.228 384.415,1006.16C385.023,1006.65 387.559,1006.12 387.823,1005.49C394.309,990.016 400.376,974.36 406.997,958.942C417.025,935.596 427.453,912.421 437.64,889.143C444.802,872.779 451.813,856.35 458.955,839.978C463.696,829.109 468.544,818.286 473.367,807.452C473.744,806.606 474.234,805.792 474.779,805.04C478.48,799.932 479.17,794.94 476.192,788.892C472.191,780.763 469.371,772.061 465.76,763.728C460.004,750.445 453.781,737.36 448.173,724.017C438.212,700.314 428.585,676.47 418.778,652.702C409.616,630.499 400.426,608.309 391.206,586.131C381.927,563.81 372.584,541.517 363.314,519.192C362.664,517.628 362.211,515.931 361.996,514.254C361.805,512.756 362.069,511.199 362.133,509.668C363.311,510.64 364.86,511.386 365.611,512.618C373.715,525.909 382.088,539.058 389.597,552.681C397.494,567.009 404.692,581.731 411.898,596.427C419.431,611.789 426.519,627.369 433.973,642.772C439.218,653.609 444.907,664.232 450.109,675.089C455.567,686.481 460.625,698.063 465.965,709.513C468.842,715.682 471.943,721.747 475.193,728.108M468.443,882.358C466.276,886.629 463.858,890.793 461.989,895.191C455.784,909.785 449.788,924.468 443.689,939.107C438.123,952.467 432.599,965.845 426.921,979.158C422.027,990.631 417.305,1002.2 411.837,1013.4C406.799,1023.72 406.455,1023.48 414.541,1031.48C424.942,1041.78 435.249,1052.17 445.615,1062.51C446.23,1063.12 447.017,1063.56 447.724,1064.08C448.131,1063.08 449.138,1061.84 448.848,1061.12C446.524,1055.41 449.832,1051.02 451.584,1046.02C456.665,1031.49 468.237,1023.59 480.945,1017.61C490.454,1013.14 501.257,1013.36 511.65,1015.44C516.019,1016.31 520.812,1017.16 524.386,1019.56C540.395,1030.28 551.323,1044.75 555.007,1064.1C555.282,1065.55 556.478,1066.81 557.245,1068.16C558.144,1067.16 559.052,1066.18 559.939,1065.17C560.472,1064.57 560.896,1063.85 561.499,1063.33C568.255,1057.53 575.193,1051.93 581.734,1045.91C584.38,1043.47 585.998,1040.39 584.028,1036.16C577.52,1022.21 571.253,1008.13 565.126,994C555.631,972.104 546.351,950.114 536.934,928.184C531.283,915.024 525.614,901.873 519.83,888.772C513.609,874.681 507.193,860.676 500.968,846.587C498.48,840.955 496.28,835.197 493.939,829.5C493.529,828.503 493.066,827.529 492.628,826.544C491.733,827.383 490.421,828.054 490.005,829.086C482.918,846.65 475.943,864.259 468.443,882.358M320.443,1224.36C317.969,1229.5 315.516,1234.65 313.019,1239.78C306.337,1253.5 299.6,1267.19 292.969,1280.94C291.366,1284.26 289.988,1287.7 288.711,1291.16C288.257,1292.39 288.41,1293.85 288.285,1295.2C289.325,1294.6 290.5,1294.15 291.381,1293.37C295.301,1289.9 298.998,1286.16 303.03,1282.83C313.546,1274.14 324.196,1265.61 334.791,1257.01C343.641,1249.83 352.494,1242.65 361.338,1235.46C370.311,1228.17 379.34,1220.94 388.224,1213.54C397.293,1205.98 406.168,1198.19 415.215,1190.61C429.046,1179.02 443.024,1167.6 456.797,1155.94C465.36,1148.7 473.658,1141.14 482.083,1133.72C484.02,1132.02 485.183,1130 482.944,1127.93C477.442,1122.87 471.753,1118.01 466.143,1113.06C451.993,1100.58 437.853,1088.08 423.692,1075.62C415.645,1068.53 407.541,1061.51 399.511,1054.4C396.573,1051.8 394.129,1053.58 393.084,1055.89C387.495,1068.22 382.204,1080.69 376.965,1093.17C371.846,1105.38 366.895,1117.65 361.904,1129.9C356.563,1143.02 351.309,1156.16 345.927,1169.25C342.008,1178.79 338.162,1188.36 333.879,1197.74C329.842,1206.57 325.276,1215.16 320.443,1224.36M672.943,1235.86C666.609,1221.99 660.221,1208.14 653.959,1194.24C648.205,1181.47 642.568,1168.64 636.913,1155.82C630.885,1142.16 624.897,1128.48 618.892,1114.81C612.887,1101.14 606.849,1087.48 600.898,1073.78C599.271,1070.04 597.508,1069.55 594.297,1072.53C579.602,1086.16 565.049,1099.95 550.25,1113.47C543.092,1120.01 535.624,1126.23 528.063,1132.3C524.087,1135.49 523.803,1137.26 527.609,1140.56C535.841,1147.69 544.034,1154.87 552.167,1162.11C559.369,1168.52 566.387,1175.15 573.632,1181.51C589.123,1195.12 604.729,1208.6 620.245,1222.18C629.066,1229.9 637.813,1237.7 646.574,1245.49C661.775,1259.01 676.951,1272.56 692.188,1286.03C692.84,1286.61 693.998,1286.61 694.92,1286.88C694.928,1285.83 695.279,1284.62 694.885,1283.75C692.857,1279.25 690.584,1274.87 688.497,1270.4C683.283,1259.23 678.124,1248.04 672.943,1235.86M482.443,1096.36C491.201,1103.23 501.281,1104.71 511.831,1102.78C515.332,1102.14 518.898,1100.15 521.73,1097.9C529.777,1091.49 533.077,1082.33 533.791,1072.52C534.42,1063.87 533.132,1055.49 526.712,1048.5C517.561,1038.54 506.349,1034.84 493.123,1035.29C478.84,1035.78 469.762,1047.47 465.787,1059.28C463.851,1065.03 464.635,1070.4 466.132,1075.61C467.423,1080.11 469.848,1084.51 472.709,1088.24C475.077,1091.32 478.813,1093.36 482.443,1096.36Z" style="fill:rgb(139,102,172);fill-rule:nonzero;"/>
            </g>
            <g transform="matrix(4.16667,0,0,4.16667,15239.7,-11435.4)">
                <path d="M1443.94,918.358C1469.14,918.025 1493.83,917.535 1518.52,917.425C1530.61,917.372 1542.69,918.013 1554.78,918.362C1565.69,918.678 1576.64,918.633 1587.52,919.47C1598.23,920.293 1608.89,921.89 1619.53,923.442C1622.69,923.903 1625.81,925.139 1628.78,926.406C1634.29,928.756 1636.01,932.942 1633.48,938.239C1631.21,942.983 1628.23,947.385 1625.99,952.143C1621.29,962.182 1616.8,972.329 1612.34,982.483C1608.13,992.069 1604.26,1001.81 1599.9,1011.32C1593.4,1025.47 1586.81,1039.58 1579.89,1053.53C1573.15,1067.09 1565.78,1080.33 1559.01,1093.88C1554.68,1102.56 1551.19,1111.66 1546.88,1120.35C1542.34,1129.49 1536.98,1138.23 1532.51,1147.4C1526.71,1159.31 1521.6,1171.55 1515.9,1183.51C1510.78,1194.24 1505.34,1204.81 1499.93,1215.39C1493.03,1228.87 1486.14,1242.36 1479.02,1255.72C1473.69,1265.7 1468.15,1275.59 1462.38,1285.32C1458.95,1291.1 1459.92,1297.12 1460.28,1303.18C1460.43,1305.6 1461.16,1308.06 1460.85,1310.39C1460.24,1315.06 1456.02,1317.51 1451.38,1316.29C1444.99,1314.61 1439.85,1311.14 1436.49,1305.38C1429.61,1293.58 1422.5,1281.89 1416.09,1269.83C1412.27,1262.65 1409.77,1254.79 1406.39,1247.36C1402.75,1239.37 1398.61,1231.59 1394.98,1223.59C1390.15,1212.93 1385.73,1202.08 1380.91,1191.42C1375.89,1180.33 1370.46,1169.42 1365.45,1158.33C1356.51,1138.54 1347.73,1118.67 1338.92,1098.82C1333.55,1086.72 1327.98,1074.69 1323.04,1062.41C1319.54,1053.69 1317.01,1044.58 1313.92,1035.68C1310.19,1024.9 1306.21,1014.21 1302.53,1003.41C1299.2,993.611 1296.04,983.753 1293.03,973.851C1292.32,971.501 1297.01,969.026 1299.66,970.806C1302.46,972.682 1305.21,975.256 1306.83,978.166C1317.38,997.1 1327.53,1016.25 1337.97,1035.24C1343.43,1045.17 1349.48,1054.78 1354.77,1064.8C1360.46,1075.57 1365.55,1086.65 1370.95,1097.58C1376.63,1109.06 1382.39,1120.5 1388.06,1131.99C1391.88,1139.74 1395.69,1147.49 1399.36,1155.31C1403.35,1163.82 1407.32,1172.34 1411.01,1180.98C1415.48,1191.46 1419.65,1202.06 1423.94,1212.62C1424.98,1215.19 1425.88,1217.81 1426.95,1220.37C1433.3,1235.57 1439.69,1250.76 1446.03,1265.96C1447.75,1270.09 1449.26,1274.29 1450.99,1278.41C1451.27,1279.08 1452.15,1279.5 1452.76,1280.04C1453.15,1279.37 1453.66,1278.74 1453.93,1278.03C1457.8,1267.8 1461.39,1257.45 1465.55,1247.35C1469.72,1237.24 1474.31,1227.3 1478.99,1217.42C1482.76,1209.46 1487.1,1201.79 1490.89,1193.84C1494.87,1185.5 1498.43,1176.97 1502.26,1168.56C1505.13,1162.25 1508.02,1155.94 1511.11,1149.73C1517.98,1135.9 1525.13,1122.21 1531.9,1108.34C1538.8,1094.21 1545.24,1079.86 1552.13,1065.73C1558.42,1052.82 1565.25,1040.18 1571.48,1027.24C1578.51,1012.67 1585.12,997.9 1591.95,983.23C1595.91,974.705 1599.86,966.17 1604,957.726C1605.09,955.487 1606.86,953.581 1608.29,951.498C1608.74,950.834 1609.08,950.09 1609.47,949.383C1608.61,949.042 1607.7,948.308 1606.9,948.418C1597.31,949.751 1587.75,951.243 1578.16,952.62C1573.58,953.279 1568.98,953.782 1564.38,954.359C1556.78,955.314 1549.19,956.417 1541.57,957.182C1535.52,957.789 1529.43,957.881 1523.37,958.388C1517.78,958.856 1512.22,959.694 1506.62,960.109C1504.65,960.255 1502.62,959.406 1500.62,959.395C1487.78,959.323 1474.95,959.488 1462.12,959.323C1448.59,959.148 1435.06,958.787 1421.54,958.334C1404.65,957.768 1387.74,957.351 1370.88,956.238C1360.56,955.557 1350.32,953.626 1340.03,952.39C1335.69,951.869 1331.31,951.62 1326.94,951.375C1319.92,950.98 1312.89,950.704 1305.86,950.355C1299.5,950.039 1293.12,949.912 1286.79,949.282C1282.44,948.85 1279.91,945.848 1277.84,942.027C1275.66,937.981 1276.32,935.336 1278.91,931.467C1281.99,926.852 1283.28,921.003 1285.15,915.62C1289.15,904.105 1292.87,892.493 1296.98,881.02C1302.33,866.08 1307.63,851.106 1313.53,836.379C1322.91,812.94 1332.57,789.601 1342.51,766.395C1348.95,751.389 1355.92,736.606 1362.98,721.879C1376.51,693.645 1390.19,665.481 1403.97,637.368C1413.01,618.934 1422.34,600.644 1431.52,582.28C1436.35,572.617 1441.22,562.974 1445.9,553.238C1447.62,549.656 1452.27,549.15 1454.62,552.516C1460.12,560.412 1466.11,568.008 1471.1,576.213C1475.91,584.113 1479.72,592.616 1483.94,600.87C1488.44,609.67 1493,618.441 1497.36,627.31C1502.32,637.412 1507.08,647.615 1511.95,657.761C1514.49,663.044 1517.08,668.299 1519.65,673.568C1524.72,683.968 1529.94,694.296 1534.82,704.784C1544.83,726.298 1554.94,747.771 1564.47,769.497C1574.48,792.337 1584.09,815.365 1593.45,838.48C1599.41,853.181 1604.64,868.18 1610.09,883.084C1610.49,884.173 1610.03,885.574 1609.97,886.829C1608.81,886.357 1607.2,886.218 1606.57,885.359C1602.57,879.895 1598.57,874.41 1594.99,868.67C1588.81,858.767 1583,848.638 1576.93,838.669C1568.57,824.954 1559.99,811.375 1551.74,797.595C1545.29,786.807 1539.19,775.806 1532.94,764.893C1527.93,756.137 1522.81,747.447 1517.98,738.592C1511.54,726.779 1505.24,714.882 1499.06,702.934C1493.24,691.692 1487.84,680.227 1481.89,669.056C1473.88,654.018 1465.44,639.213 1457.38,624.203C1455.2,620.152 1453.77,615.704 1451.9,611.482C1451.67,610.966 1450.59,610.288 1450.3,610.44C1449.41,610.904 1448.32,611.591 1448,612.448C1444.57,621.697 1441.39,631.038 1437.92,640.271C1431.31,657.86 1424.64,675.431 1417.82,692.94C1413.01,705.277 1408.2,717.629 1402.86,729.737C1397.57,741.722 1391.56,753.385 1385.97,765.239C1383.27,770.949 1380.86,776.79 1378.25,782.539C1374.04,791.797 1369.82,801.049 1365.52,810.265C1354.12,834.707 1342.61,859.1 1331.27,883.57C1325.7,895.587 1320.47,907.764 1314.95,919.805C1312.13,925.953 1313.61,928.664 1320.35,928.277C1324.75,928.024 1329.11,926.959 1333.5,926.31C1340.31,925.303 1347.11,924.162 1353.95,923.397C1367.05,921.932 1380.17,920.69 1393.29,919.365C1393.78,919.315 1394.29,919.367 1394.79,919.357C1411.01,919.025 1427.22,918.692 1443.94,918.358Z" style="fill:rgb(140,196,105);fill-rule:nonzero;"/>
            </g>
            <g transform="matrix(4.16667,0,0,4.16667,15239.7,-11435.4)">
                <path d="M1206.94,938.358C1209.06,934.737 1210.96,931.419 1213.41,928.586C1214.49,927.336 1216.71,927.071 1218.42,926.358C1218.18,927.942 1218.33,929.735 1217.63,931.078C1206.8,951.765 1195.98,972.461 1184.88,993.004C1180.37,1001.35 1174.95,1009.2 1170.39,1017.52C1166.17,1025.22 1162.68,1033.32 1158.63,1041.13C1152.85,1052.24 1146.96,1063.31 1140.91,1074.28C1133.87,1087.05 1126.63,1099.7 1119.4,1112.37C1116.98,1116.62 1118.03,1120.37 1120.32,1124.29C1128.65,1138.49 1136.86,1152.76 1145.09,1167.02C1147.42,1171.05 1149.64,1175.13 1151.95,1179.17C1153.78,1182.38 1154.75,1182.36 1156.96,1179.3C1157.81,1178.12 1158.81,1177.03 1159.83,1175.99C1171.6,1163.86 1183.6,1151.94 1195.1,1139.56C1203.48,1130.55 1211.16,1120.9 1219.27,1111.64C1220.23,1110.54 1221.9,1109.56 1223.3,1109.49C1225.09,1109.41 1226.77,1109.96 1225.14,1112.76C1219.08,1123.22 1213.8,1134.16 1207.28,1144.32C1197.61,1159.42 1187.13,1174 1177,1188.8C1174.16,1192.95 1171,1196.94 1168.69,1201.38C1167.81,1203.07 1168.25,1206.18 1169.25,1207.99C1173.94,1216.41 1179.41,1224.42 1183.9,1232.94C1192.17,1248.65 1200.1,1264.54 1207.89,1280.49C1212.68,1290.32 1216.94,1300.4 1221.45,1310.37C1222.6,1312.89 1223.96,1315.34 1224.85,1317.95C1225.16,1318.89 1224.37,1320.21 1224.09,1321.36C1223.1,1320.92 1221.74,1320.76 1221.19,1320.01C1213.33,1309.29 1205.78,1298.34 1197.74,1287.76C1189.88,1277.42 1181.3,1267.64 1173.49,1257.27C1167.44,1249.24 1161.89,1240.81 1156.52,1232.31C1153.2,1227.06 1151.17,1226.69 1147.8,1232.03C1136.81,1249.46 1125.9,1266.95 1114.93,1284.4C1112.42,1288.4 1110.3,1288.83 1107.39,1285.17C1101.48,1277.72 1096.09,1269.85 1090.32,1262.28C1082.4,1251.87 1074.31,1241.57 1066.31,1231.22C1065.15,1229.71 1064.04,1228.17 1062.95,1226.61C1062.2,1225.55 1061.53,1224.44 1060.82,1223.36C1059.96,1224.43 1058.92,1225.39 1058.26,1226.58C1047.79,1245.57 1037.66,1264.75 1026.79,1283.51C1022.83,1290.35 1017.07,1296.14 1012.31,1302.54C1007.12,1309.52 1002.2,1316.69 997.042,1323.69C996.044,1325.05 994.53,1326.02 993.254,1327.17C992.656,1324.89 991.304,1322.5 991.626,1320.37C992.194,1316.59 993.66,1312.93 994.965,1309.29C999.757,1295.95 1003.9,1282.31 1009.65,1269.39C1019.67,1246.86 1030.58,1224.72 1041.42,1202.56C1043.03,1199.29 1042.67,1197.41 1040.78,1194.56C1030.94,1179.68 1021.51,1164.53 1011.67,1149.65C1002.55,1135.88 993.054,1122.37 983.841,1108.66C982.889,1107.24 982.743,1105.29 982.223,1103.58C984.125,1103.67 986.228,1103.27 987.881,1103.96C990.156,1104.91 992.333,1106.42 994.132,1108.13C1004.45,1117.94 1015.04,1127.5 1024.76,1137.88C1035.6,1149.48 1045.6,1161.86 1055.99,1173.88C1056.44,1174.39 1057.14,1174.93 1057.75,1174.96C1058.12,1174.98 1058.64,1174.11 1058.93,1173.55C1063.03,1165.58 1066.98,1157.54 1071.21,1149.64C1076.33,1140.08 1081.88,1130.75 1086.77,1121.07C1087.67,1119.28 1086.96,1115.93 1085.84,1113.96C1072.33,1090.37 1058.82,1066.77 1044.88,1043.44C1033.91,1025.09 1022.18,1007.19 1011.12,988.896C1007.39,982.716 1004.76,975.876 1001.47,969.414C995.171,957.02 988.665,944.728 982.503,932.266C981.533,930.306 981.915,927.678 981.673,925.358C983.763,926.785 986.396,927.795 987.857,929.703C1000.33,945.983 1012.72,962.323 1024.85,978.86C1031.83,988.374 1038.29,998.266 1044.93,1008.02C1051.3,1017.37 1057.72,1026.69 1063.91,1036.16C1071.7,1048.07 1079.21,1060.16 1086.97,1072.1C1091.5,1079.08 1096.26,1085.92 1100.95,1092.8C1102.37,1094.88 1102.87,1094.11 1104.03,1092.2C1111.21,1080.32 1118.35,1068.38 1126.08,1056.84C1138.43,1038.39 1151.35,1020.33 1163.79,1001.95C1175.05,985.322 1185.92,968.441 1197.1,951.77C1200.11,947.285 1203.65,943.153 1206.94,938.358M1113.94,1233.86C1120.54,1225.93 1127,1217.87 1133.8,1210.12C1137.23,1206.21 1137.69,1202.65 1134.98,1198.2C1124.88,1181.57 1114.95,1164.84 1104.94,1148.16C1103.22,1145.3 1101.55,1145.42 1099.93,1148.31C1097.97,1151.84 1095.83,1155.27 1093.99,1158.85C1089.55,1167.5 1085.72,1176.51 1080.74,1184.83C1076.33,1192.2 1074.89,1198.43 1080.76,1205.92C1088.04,1215.19 1093.8,1225.67 1101.2,1234.84C1107.88,1243.11 1106.63,1242.02 1113.94,1233.86Z" style="fill:rgb(139,102,172);fill-rule:nonzero;"/>
            </g>
            <g transform="matrix(4.16667,0,0,4.16667,15239.7,-11435.4)">
                <path d="M777.943,1080.36C778.609,1066.97 779.233,1054.08 779.956,1041.2C780.558,1030.47 781.304,1019.75 781.935,1009.03C782.635,997.145 783.36,985.26 783.917,973.367C784.378,963.513 784.546,953.646 784.978,943.791C785.125,940.435 785.017,936.828 786.234,933.825C787.502,930.695 789.77,926.398 792.407,925.714C798.432,924.149 804.704,925.186 808.945,930.947C820.978,947.293 833.027,963.627 845.057,979.976C857.083,996.32 869.362,1012.49 881.03,1029.08C891.312,1043.71 901.21,1058.63 910.689,1073.79C916.667,1083.35 921.554,1093.59 926.948,1103.52C928.723,1106.79 930.165,1110.34 932.461,1113.19C935.166,1116.56 934.881,1119.03 933.137,1122.96C928.143,1134.22 918.325,1141 910.161,1149.27C905.089,1154.4 899.267,1158.86 893.49,1163.23C882.243,1171.75 870.941,1180.21 859.327,1188.22C856.132,1190.42 855.951,1192.02 858.324,1194.15C866.656,1201.66 875.151,1208.98 883.605,1216.35C884.806,1217.4 886.25,1218.19 887.359,1219.31C902.941,1235.17 919.118,1250.51 933.819,1267.15C943.927,1278.59 951.99,1291.84 960.933,1304.3C963.688,1308.14 966.433,1312 968.964,1315.99C969.65,1317.07 969.541,1318.65 969.797,1320.01C968.325,1319.77 966.444,1320.03 965.451,1319.22C959.93,1314.68 954.763,1309.7 949.209,1305.2C942.15,1299.49 934.79,1294.14 927.644,1288.53C919.327,1282 911.075,1275.39 902.846,1268.74C895.465,1262.78 887.742,1257.17 880.909,1250.63C870.775,1240.92 861.225,1230.61 851.574,1220.41C848.493,1217.16 845.35,1213.76 843.187,1209.89C840.577,1205.22 838.044,1200.13 837.276,1194.95C836.774,1191.57 838.651,1187.08 840.886,1184.19C847.03,1176.24 853.667,1168.63 860.579,1161.33C873.344,1147.85 886.424,1134.67 899.431,1121.42C901.112,1119.71 903.041,1118.19 905.023,1116.83C907.786,1114.94 907.239,1112.76 905.678,1110.64C899.734,1102.58 893.425,1094.78 887.737,1086.55C878.098,1072.61 868.89,1058.37 859.385,1044.33C849.33,1029.48 839.158,1014.71 828.998,999.927C823.019,991.228 816.989,982.563 810.907,973.936C810.243,972.995 809.082,972.403 808.152,971.649C807.749,972.815 806.874,974.04 807.011,975.139C812.361,1018.29 809.006,1061.63 809.945,1104.88C810.264,1119.57 810.891,1134.26 810.87,1148.95C810.845,1166.48 810.558,1184.01 809.85,1201.52C809.32,1214.62 808.056,1227.7 806.912,1240.77C805.718,1254.39 804.363,1268.01 802.916,1281.6C801.714,1292.9 800.385,1304.18 798.809,1315.42C798.606,1316.87 796.365,1319.27 795.44,1319.11C793.475,1318.76 791.002,1317.45 790.062,1315.78C785.164,1307.1 782.822,1297.73 781.74,1287.69C779.737,1269.1 777.797,1250.59 777.803,1231.84C777.807,1215.45 776.631,1199.07 775.932,1182.68C775.667,1176.48 774.956,1170.29 775.01,1164.1C775.118,1151.57 775.509,1139.04 775.968,1126.52C776.527,1111.3 777.276,1096.08 777.943,1080.36Z" style="fill:rgb(139,102,172);fill-rule:nonzero;"/>
            </g>
            <g transform="matrix(4.16667,0,0,4.16667,15239.7,-11435.4)">
                <path d="M1345.19,1260.61C1349.3,1268.21 1353.32,1275.8 1358.16,1282.82C1360.38,1286.06 1359.37,1288.44 1357.83,1290.71C1356.49,1292.67 1354.61,1293.31 1351.4,1292.67C1344.74,1291.35 1337.75,1291.38 1330.91,1291.58C1329.19,1291.63 1326.95,1294.09 1325.99,1295.98C1322.72,1302.42 1320,1309.14 1316.88,1315.67C1316.2,1317.09 1314.74,1318.14 1313.64,1319.36C1312.46,1318.25 1311.02,1317.31 1310.15,1316C1305.24,1308.57 1300.58,1300.96 1295.52,1293.63C1294.63,1292.34 1292.28,1291.6 1290.54,1291.44C1283.58,1290.81 1276.61,1291.18 1270.09,1293.84C1266.26,1295.4 1263.9,1293.66 1262.33,1290.99C1261.52,1289.6 1261.93,1287 1262.63,1285.29C1265.56,1278.18 1268.6,1271.09 1272.04,1264.22C1273.56,1261.19 1272.42,1259.29 1271.04,1256.87C1267.82,1251.24 1264.9,1245.43 1261.79,1239.73C1259.66,1235.81 1262.1,1234.31 1265.17,1234.48C1271.38,1234.83 1277.62,1235.49 1283.7,1236.74C1290.15,1238.07 1290.86,1237.91 1293.65,1232.22C1297.25,1224.87 1300.97,1217.57 1305.01,1210.45C1308.06,1205.08 1310.64,1205.13 1313.9,1210.41C1317.73,1216.62 1321.1,1223.12 1325.06,1229.24C1326.06,1230.78 1328.49,1232.08 1330.37,1232.23C1338.91,1232.95 1347.61,1231.18 1356.04,1234.28C1359.62,1235.59 1360.17,1236.68 1358.21,1239.68C1353.8,1246.47 1349.68,1253.45 1345.19,1260.61Z" style="fill:rgb(139,102,172);fill-rule:nonzero;"/>
            </g>
        </g>
    </g>
    <defs>
        <radialGradient id="_Radial2" cx="0" cy="0" r="1" gradientUnits="userSpaceOnUse" gradientTransform="matrix(-1700,2.0819e-13,-2.0819e-13,-1700,1820,960)"><stop offset="0" style="stop-color:rgb(105,183,189);stop-opacity:1"/><stop offset="0.35" style="stop-color:rgb(139,102,172);stop-opacity:1"/><stop offset="0.63" style="stop-color:rgb(241,133,144);stop-opacity:1"/><stop offset="0.85" style="stop-color:rgb(255,219,138);stop-opacity:1"/><stop offset="1" style="stop-color:rgb(140,196,105);stop-opacity:1"/></radialGradient>
        <radialGradient id="_Radial3" cx="0" cy="0" r="1" gradientUnits="userSpaceOnUse" gradientTransform="matrix(-1700,2.0819e-13,-2.0819e-13,-1700,1820,960)"><stop offset="0" style="stop-color:rgb(105,183,189);stop-opacity:1"/><stop offset="0.35" style="stop-color:rgb(139,102,172);stop-opacity:1"/><stop offset="0.63" style="stop-color:rgb(241,133,144);stop-opacity:1"/><stop offset="0.85" style="stop-color:rgb(255,219,138);stop-opacity:1"/><stop offset="1" style="stop-color:rgb(140,196,105);stop-opacity:1"/></radialGradient>
        <radialGradient id="_Radial4" cx="0" cy="0" r="1" gradientUnits="userSpaceOnUse" gradientTransform="matrix(-1700,2.0819e-13,-2.0819e-13,-1700,1820,960)"><stop offset="0" style="stop-color:rgb(105,183,189);stop-opacity:1"/><stop offset="0.35" style="stop-color:rgb(139,102,172);stop-opacity:1"/><stop offset="0.63" style="stop-color:rgb(241,133,144);stop-opacity:1"/><stop offset="0.85" style="stop-color:rgb(255,219,138);stop-opacity:1"/><stop offset="1" style="stop-color:rgb(140,196,105);stop-opacity:1"/></radialGradient>
        <radialGradient id="_Radial5" cx="0" cy="0" r="1" gradientUnits="userSpaceOnUse" gradientTransform="matrix(-1700,2.0819e-13,-2.0819e-13,-1700,1820,960)"><stop offset="0" style="stop-color:rgb(105,183,189);stop-opacity:1"/><stop offset="0.35" style="stop-color:rgb(139,102,172);stop-opacity:1"/><stop offset="0.63" style="stop-color:rgb(241,133,144);stop-opacity:1"/><stop offset="0.85" style="stop-color:rgb(255,219,138);stop-opacity:1"/><stop offset="1" style="stop-color:rgb(140,196,105);stop-opacity:1"/></radialGradient>
        <radialGradient id="_Radial6" cx="0" cy="0" r="1" gradientUnits="userSpaceOnUse" gradientTransform="matrix(-1700,2.0819e-13,-2.0819e-13,-1700,1820,960)"><stop offset="0" style="stop-color:rgb(105,183,189);stop-opacity:1"/><stop offset="0.35" style="stop-color:rgb(139,102,172);stop-opacity:1"/><stop offset="0.63" style="stop-color:rgb(241,133,144);stop-opacity:1"/><stop offset="0.85" style="stop-color:rgb(255,219,138);stop-opacity:1"/><stop offset="1" style="stop-color:rgb(140,196,105);stop-opacity:1"/></radialGradient>
        <radialGradient id="_Radial7" cx="0" cy="0" r="1" gradientUnits="userSpaceOnUse" gradientTransform="matrix(-1700,2.0819e-13,-2.0819e-13,-1700,1820,960)"><stop offset="0" style="stop-color:rgb(105,183,189);stop-opacity:1"/><stop offset="0.35" style="stop-color:rgb(139,102,172);stop-opacity:1"/><stop offset="0.63" style="stop-color:rgb(241,133,144);stop-opacity:1"/><stop offset="0.85" style="stop-color:rgb(255,219,138);stop-opacity:1"/><stop offset="1" style="stop-color:rgb(140,196,105);stop-opacity:1"/></radialGradient>
        <radialGradient id="_Radial8" cx="0" cy="0" r="1" gradientUnits="userSpaceOnUse" gradientTransform="matrix(-1700,2.0819e-13,-2.0819e-13,-1700,1820,960)"><stop offset="0" style="stop-color:rgb(105,183,189);stop-opacity:1"/><stop offset="0.35" style="stop-color:rgb(139,102,172);stop-opacity:1"/><stop offset="0.63" style="stop-color:rgb(241,133,144);stop-opacity:1"/><stop offset="0.85" style="stop-color:rgb(255,219,138);stop-opacity:1"/><stop offset="1" style="stop-color:rgb(140,196,105);stop-opacity:1"/></radialGradient>
        <radialGradient id="_Radial9" cx="0" cy="0" r="1" gradientUnits="userSpaceOnUse" gradientTransform="matrix(-1700,2.0819e-13,-2.0819e-13,-1700,1820,960)"><stop offset="0" style="stop-color:rgb(105,183,189);stop-opacity:1"/><stop offset="0.35" style="stop-color:rgb(139,102,172);stop-opacity:1"/><stop offset="0.63" style="stop-color:rgb(241,133,144);stop-opacity:1"/><stop offset="0.85" style="stop-color:rgb(255,219,138);stop-opacity:1"/><stop offset="1" style="stop-color:rgb(140,196,105);stop-opacity:1"/></radialGradient>
    </defs>
</svg>
